# xmcd
#
# Track frame offsets:
#	150
#	21785
#	37379
#	52586
#	69091
#	84106
#	110234
#	114569
#	135111
#	151193
#	169723
#	172472
#	188562
#	205372
#	220624
#	245427
#	246968
#
# Disc length: 3374 seconds
# Revision: 1
# Processed by: cddbd v1.5.2PL0 Copyright (c) Steve Scherf et al.
# Submitted via: dBpowerAMP V12.0
#
DISCID=e00d2c11
DTITLE=Bob Livingston - Up the Flatland Stairs
DYEAR=2018
DGENRE=Country
TTITLE0=Shell Game
TTITLE1=A Few Things Right
TTITLE2=Public Domain
TTITLE3=That's the Way Things Go
TTITLE4=The Usual Thing
TTITLE5=Can't Get Enough of It
TTITLE6=Didn't Want to Change
TTITLE7=Cowgirl's Lullaby
TTITLE8=A Month of Somedays
TTITLE9=It Just Might Be Your Lovin'
TTITLE10=Intermission
TTITLE11=The Early Days
TTITLE12=You Got My Goat
TTITLE13=We Should Have Stayed
TTITLE14=Caution to the Wind
TTITLE15=Don't It Make Sense
TTITLE16=Nervous Breakdown
EXTD=
EXTT0=
EXTT1=
EXTT2=
EXTT3=
EXTT4=
EXTT5=
EXTT6=
EXTT7=
EXTT8=
EXTT9=
EXTT10=
EXTT11=
EXTT12=
EXTT13=
EXTT14=
EXTT15=
EXTT16=
PLAYORDER=
